<svg width="356" height="37" viewBox="0 0 356 37" fill="none" xmlns="http://www.w3.org/2000/svg">
<path d="M63.392 32.199C63.392 33.279 63.014 34.197 62.258 34.953C61.502 35.709 60.584 36.087 59.504 36.087C58.964 36.087 58.478 35.979 58.046 35.763C57.614 35.547 57.209 35.277 56.831 34.953C56.507 34.629 56.264 34.359 56.102 34.143C53.888 31.389 51.593 29.229 49.217 27.663C46.895 26.097 44.438 24.909 41.846 24.099C39.254 23.289 36.5 22.803 33.584 22.641C30.722 22.425 27.644 22.317 24.35 22.317H7.826V32.199C7.826 33.279 7.421 34.197 6.611 34.953C5.855 35.709 4.964 36.087 3.938 36.087C2.858 36.087 1.94 35.709 1.184 34.953C0.428 34.197 0.0500001 33.279 0.0500001 32.199V11.382C0.0500001 9.762 0.347 8.304 0.941 7.008C1.535 5.712 2.291 4.605 3.209 3.687C4.127 2.769 5.18 2.067 6.368 1.581C7.556 1.041 8.744 0.771 9.932 0.771H52.214C53.726 0.771 55.157 1.068 56.507 1.662C57.857 2.202 59.045 2.958 60.071 3.93C61.097 4.902 61.907 6.036 62.501 7.332C63.095 8.628 63.392 10.032 63.392 11.544C63.392 12.624 63.014 13.542 62.258 14.298C61.502 15.054 60.584 15.432 59.504 15.432C58.424 15.432 57.506 15.054 56.75 14.298C55.994 13.542 55.616 12.624 55.616 11.544C55.616 10.734 55.319 10.059 54.725 9.519C54.185 8.979 53.537 8.655 52.781 8.547H10.337C9.635 8.547 9.068 8.736 8.636 9.114C8.204 9.438 7.934 9.843 7.826 10.329V14.541H24.35C29.102 14.541 33.395 14.811 37.229 15.351C41.063 15.891 44.519 16.782 47.597 18.024C50.729 19.212 53.51 20.805 55.94 22.803C58.424 24.747 60.638 27.15 62.582 30.012C63.122 30.714 63.392 31.443 63.392 32.199ZM71.4787 4.659C71.4787 3.579 71.8567 2.661 72.6127 1.905C73.3687 1.149 74.2867 0.771 75.3667 0.771H132.796C133.876 0.771 134.794 1.149 135.55 1.905C136.306 2.661 136.684 3.579 136.684 4.659C136.684 5.739 136.306 6.657 135.55 7.413C134.794 8.169 133.876 8.547 132.796 8.547H75.3667C74.2867 8.547 73.3687 8.169 72.6127 7.413C71.8567 6.657 71.4787 5.739 71.4787 4.659ZM81.3607 36.087C80.1727 36.087 78.9847 35.844 77.7967 35.358C76.6087 34.818 75.5557 34.089 74.6377 33.171C73.7197 32.253 72.9637 31.146 72.3697 29.85C71.7757 28.554 71.4787 27.096 71.4787 25.476V18.186C71.4787 16.728 71.8837 15.756 72.6937 15.27C73.5577 14.784 74.8807 14.541 76.6627 14.541H131.014C132.094 14.541 133.012 14.919 133.768 15.675C134.524 16.431 134.902 17.349 134.902 18.429C134.902 19.509 134.524 20.427 133.768 21.183C133.012 21.939 132.094 22.317 131.014 22.317H79.2547V26.286C79.2547 26.826 79.4707 27.312 79.9027 27.744C80.3887 28.122 81.0097 28.311 81.7657 28.311H132.796C133.876 28.311 134.794 28.689 135.55 29.445C136.306 30.201 136.684 31.119 136.684 32.199C136.684 33.279 136.306 34.197 135.55 34.953C134.794 35.709 133.876 36.087 132.796 36.087H81.3607ZM152.582 18.429C152.582 19.401 152.69 20.481 152.906 21.669C153.176 22.803 153.635 23.856 154.283 24.828C154.985 25.8 155.903 26.637 157.037 27.339C158.225 27.987 159.764 28.311 161.654 28.311H193.892C195.728 28.311 197.24 27.987 198.428 27.339C199.616 26.637 200.534 25.8 201.182 24.828C201.884 23.856 202.343 22.803 202.559 21.669C202.829 20.481 202.964 19.401 202.964 18.429V4.74C202.964 3.66 203.342 2.742 204.098 1.986C204.854 1.23 205.772 0.851999 206.852 0.851999C207.932 0.851999 208.85 1.23 209.606 1.986C210.362 2.742 210.74 3.66 210.74 4.74V18.429C210.74 20.481 210.389 22.56 209.687 24.666C209.039 26.718 208.067 28.608 206.771 30.336C205.475 32.01 203.909 33.387 202.073 34.467C200.237 35.547 198.158 36.087 195.836 36.087H158.9C156.686 35.979 154.715 35.385 152.987 34.305C151.259 33.171 149.774 31.767 148.532 30.093C147.344 28.419 146.426 26.556 145.778 24.504C145.13 22.452 144.806 20.427 144.806 18.429V4.74C144.806 3.66 145.184 2.742 145.94 1.986C146.696 1.23 147.614 0.851999 148.694 0.851999C149.774 0.851999 150.692 1.23 151.448 1.986C152.204 2.742 152.582 3.66 152.582 4.74V18.429ZM218.845 4.659C218.845 3.579 219.223 2.661 219.979 1.905C220.735 1.149 221.653 0.771 222.733 0.771H280.162C281.242 0.771 282.16 1.149 282.916 1.905C283.672 2.661 284.05 3.579 284.05 4.659C284.05 5.739 283.672 6.657 282.916 7.413C282.16 8.169 281.242 8.547 280.162 8.547H222.733C221.653 8.547 220.735 8.169 219.979 7.413C219.223 6.657 218.845 5.739 218.845 4.659ZM228.727 36.087C227.539 36.087 226.351 35.844 225.163 35.358C223.975 34.818 222.922 34.089 222.004 33.171C221.086 32.253 220.33 31.146 219.736 29.85C219.142 28.554 218.845 27.096 218.845 25.476V18.186C218.845 16.728 219.25 15.756 220.06 15.27C220.924 14.784 222.247 14.541 224.029 14.541H278.38C279.46 14.541 280.378 14.919 281.134 15.675C281.89 16.431 282.268 17.349 282.268 18.429C282.268 19.509 281.89 20.427 281.134 21.183C280.378 21.939 279.46 22.317 278.38 22.317H226.621V26.286C226.621 26.826 226.837 27.312 227.269 27.744C227.755 28.122 228.376 28.311 229.132 28.311H280.162C281.242 28.311 282.16 28.689 282.916 29.445C283.672 30.201 284.05 31.119 284.05 32.199C284.05 33.279 283.672 34.197 282.916 34.953C282.16 35.709 281.242 36.087 280.162 36.087H228.727ZM303.269 36.087C301.757 36.087 300.326 35.817 298.976 35.277C297.626 34.683 296.438 33.9 295.412 32.928C294.44 31.956 293.657 30.822 293.063 29.526C292.469 28.23 292.172 26.826 292.172 25.314V4.659C292.172 3.579 292.55 2.661 293.306 1.905C294.062 1.149 294.98 0.771 296.06 0.771C297.086 0.771 297.977 1.149 298.733 1.905C299.543 2.661 299.948 3.579 299.948 4.659V25.314C299.948 26.124 300.245 26.826 300.839 27.42C301.487 28.014 302.216 28.311 303.026 28.311H351.626C352.706 28.311 353.624 28.689 354.38 29.445C355.136 30.201 355.514 31.119 355.514 32.199C355.514 33.279 355.136 34.197 354.38 34.953C353.624 35.709 352.706 36.087 351.626 36.087H303.269Z" fill="#02073E"/>
</svg>
